<?xml version="1.0" standalone="no"?>
<!DOCTYPE svg PUBLIC "-//W3C//DTD SVG 20010904//EN"
 "http://www.w3.org/TR/2001/REC-SVG-20010904/DTD/svg10.dtd">
<svg version="1.0" xmlns="http://www.w3.org/2000/svg"
 width="80.000000pt" height="81.000000pt" viewBox="0 0 80.000000 81.000000"
 preserveAspectRatio="xMidYMid meet">

<g transform="translate(0.000000,81.000000) scale(0.100000,-0.100000)"
fill="#000000" stroke="none">
<path d="M346 750 c-25 -27 -46 -55 -46 -62 0 -21 91 -118 111 -118 10 0 21 9
24 20 3 11 10 20 15 20 22 0 63 -22 99 -55 91 -83 92 -226 2 -311 -35 -33 -27
-44 35 -44 30 0 48 7 69 26 20 18 34 24 51 20 21 -6 25 -1 40 51 23 80 15 185
-20 257 -41 84 -130 160 -216 187 -48 14 -71 27 -75 40 -10 32 -40 22 -89 -31z"/>
<path d="M232 719 c-60 -30 -125 -99 -159 -167 -25 -50 -28 -68 -28 -152 0
-81 4 -102 25 -145 l25 -50 79 -3 c82 -3 118 10 84 29 -27 15 -67 91 -74 140
-12 87 30 169 112 220 l35 21 -25 27 c-26 28 -34 65 -16 76 14 9 12 25 -2 25
-7 0 -32 -10 -56 -21z"/>
<path d="M366 535 c-3 -9 -18 -15 -34 -15 -34 0 -57 -22 -48 -45 3 -9 -3 -23
-14 -32 -25 -22 -25 -54 0 -76 11 -9 17 -23 14 -32 -8 -21 14 -45 41 -45 12 0
28 -7 35 -15 16 -19 57 -19 76 0 9 8 26 15 38 15 28 0 50 24 42 45 -3 9 3 23
14 32 25 22 25 44 1 72 -11 13 -17 29 -14 37 8 22 -16 44 -49 44 -16 0 -31 6
-34 15 -4 8 -18 15 -34 15 -16 0 -30 -7 -34 -15z m81 -101 c15 -24 15 -29 2
-53 -11 -20 -22 -26 -49 -26 -27 0 -38 6 -49 26 -13 24 -13 29 2 53 12 18 26
26 47 26 21 0 35 -8 47 -26z"/>
<path d="M668 210 c-12 -19 -24 -20 -318 -20 -350 0 -350 0 -350 -74 0 -23 5
-47 12 -54 9 -9 96 -12 329 -12 308 0 317 -1 322 -20 3 -11 14 -20 24 -20 19
0 113 88 113 105 0 15 -95 115 -108 115 -7 0 -17 -9 -24 -20z"/>
</g>
</svg>
