<?xml version="1.0" standalone="no"?>
<!DOCTYPE svg PUBLIC "-//W3C//DTD SVG 20010904//EN"
 "http://www.w3.org/TR/2001/REC-SVG-20010904/DTD/svg10.dtd">
<svg version="1.0" xmlns="http://www.w3.org/2000/svg"
 width="80.000000pt" height="81.000000pt" viewBox="0 0 80.000000 81.000000"
 preserveAspectRatio="xMidYMid meet">

<g transform="translate(0.000000,81.000000) scale(0.100000,-0.100000)"
fill="#000000" stroke="none">
<path d="M370 712 c0 -36 6 -65 15 -78 15 -19 15 -19 30 0 9 13 15 42 15 78 0
58 0 58 -30 58 -30 0 -30 0 -30 -58z"/>
<path d="M252 699 c-74 -36 -134 -101 -161 -173 -10 -28 -18 -52 -17 -52 0 -1
20 -4 43 -7 36 -4 42 -2 47 17 3 11 15 36 26 55 20 32 22 32 40 16 26 -24 47
-9 23 17 -17 19 -17 20 2 35 11 8 35 22 54 30 27 11 32 18 27 36 -3 12 -6 30
-6 40 0 23 -7 22 -78 -14z"/>
<path d="M470 713 c0 -10 -3 -28 -6 -40 -5 -18 0 -25 27 -36 19 -8 43 -22 54
-30 19 -15 19 -16 2 -35 -24 -26 -3 -41 23 -17 18 16 20 16 40 -16 11 -19 23
-44 26 -55 5 -19 11 -21 47 -17 23 3 43 6 43 7 1 0 -7 24 -17 52 -25 66 -83
132 -145 166 -72 38 -94 43 -94 21z"/>
<path d="M351 544 c-26 -33 -26 -54 -1 -82 24 -25 25 -32 6 -32 -8 0 -28 -16
-45 -35 -47 -54 -41 -83 22 -110 47 -19 86 -19 137 1 26 11 42 24 46 40 7 29
-21 78 -55 95 -14 8 -28 15 -30 16 -3 2 3 9 12 16 27 21 31 60 7 90 -29 36
-71 36 -99 1z"/>
<path d="M34 426 c-3 -8 -4 -23 -2 -33 7 -37 143 -25 143 12 0 22 -29 33 -93
34 -29 1 -44 -4 -48 -13z"/>
<path d="M650 431 c-15 -4 -25 -14 -25 -26 0 -22 48 -38 103 -33 34 3 37 6 37
33 0 29 -2 30 -45 32 -25 1 -56 -2 -70 -6z"/>
<path d="M80 318 c0 -36 54 -121 104 -165 40 -35 132 -82 140 -72 2 2 6 21 10
41 7 36 6 37 -37 56 -54 24 -64 38 -42 62 22 24 0 38 -25 15 -17 -16 -19 -15
-33 7 -9 12 -21 35 -28 51 -10 23 -18 27 -51 27 -33 0 -38 -3 -38 -22z"/>
<path d="M631 313 c-7 -16 -19 -39 -28 -51 -14 -22 -16 -23 -33 -7 -25 23 -47
9 -25 -15 22 -24 12 -38 -42 -62 -43 -19 -44 -20 -37 -56 4 -20 8 -38 9 -39 1
-2 23 4 48 13 62 21 139 92 171 156 37 74 35 88 -12 88 -33 0 -41 -4 -51 -27z"/>
<path d="M380 164 c-6 -14 -10 -48 -10 -75 0 -48 1 -49 30 -49 29 0 30 1 30
49 0 55 -14 101 -30 101 -6 0 -15 -12 -20 -26z"/>
</g>
</svg>
