<?xml version="1.0" standalone="no"?>
<!DOCTYPE svg PUBLIC "-//W3C//DTD SVG 20010904//EN"
 "http://www.w3.org/TR/2001/REC-SVG-20010904/DTD/svg10.dtd">
<svg version="1.0" xmlns="http://www.w3.org/2000/svg"
 width="80.000000pt" height="81.000000pt" viewBox="0 0 80.000000 81.000000"
 preserveAspectRatio="xMidYMid meet">

<g transform="translate(0.000000,81.000000) scale(0.100000,-0.100000)"
fill="#000000" stroke="none">
<path d="M485 780 c-8 -26 -39 -42 -68 -35 -32 8 -56 -19 -39 -45 14 -23 1
-64 -22 -73 -22 -9 -21 -56 2 -64 28 -11 42 -36 36 -65 -7 -36 10 -36 25 0 9
20 9 36 1 56 -45 119 71 221 178 156 37 -23 52 -54 52 -112 0 -51 -51 -108
-98 -108 -40 0 -55 -20 -42 -54 5 -14 14 -26 20 -26 20 0 50 20 50 34 0 17 43
36 67 30 27 -7 50 22 36 44 -14 23 3 69 28 75 23 6 25 31 4 49 -46 38 -55 53
-50 79 8 35 -18 58 -45 41 -24 -15 -70 0 -70 23 0 24 -57 20 -65 -5z"/>
<path d="M481 696 c-43 -24 -65 -90 -41 -126 9 -13 11 -13 20 0 5 8 10 30 10
48 0 66 69 94 115 47 35 -34 31 -61 -16 -107 -43 -43 -45 -54 -4 -44 29 7 65
59 65 93 0 77 -82 126 -149 89z"/>
<path d="M506 654 c-9 -8 -16 -29 -16 -46 0 -17 -20 -66 -45 -112 -49 -90 -55
-116 -27 -116 12 0 32 30 65 95 27 52 55 95 63 95 21 0 49 49 36 62 -8 8 -13
7 -18 -5 -7 -19 -29 -22 -40 -6 -3 6 -1 16 5 22 6 6 11 15 11 19 0 13 -17 9
-34 -8z"/>
<path d="M217 576 c-3 -8 -18 -16 -34 -18 -22 -2 -28 -8 -26 -25 1 -11 -4 -27
-12 -33 -18 -15 -20 -37 -3 -42 6 -2 12 -15 13 -29 1 -18 8 -25 29 -27 15 -2
30 -10 33 -18 7 -18 21 -18 39 1 9 8 27 15 40 15 20 0 24 4 19 19 -3 11 1 25
10 34 18 18 20 44 4 49 -6 2 -12 15 -13 28 -1 20 -7 26 -29 28 -16 2 -31 10
-34 18 -7 18 -29 18 -36 0z m63 -56 c24 -24 25 -48 4 -78 -22 -32 -78 -30
-100 3 -40 61 43 128 96 75z"/>
<path d="M210 506 c-20 -25 -8 -61 22 -64 36 -4 53 26 32 56 -18 25 -37 28
-54 8z"/>
<path d="M607 333 c-60 -48 -86 -75 -87 -90 -1 -48 -41 -61 -134 -45 -36 6
-50 29 -16 25 8 -1 36 -5 62 -8 40 -6 48 -4 57 13 13 24 6 48 -17 57 -9 4 -55
13 -101 20 -63 11 -89 11 -105 3 -39 -21 -105 -73 -105 -83 -1 -5 22 -40 49
-77 46 -63 51 -67 75 -58 15 6 65 10 113 10 48 0 92 4 97 8 11 7 200 214 223
243 14 19 6 49 -13 49 -7 0 -51 -30 -98 -67z"/>
<path d="M93 222 l-22 -17 70 -95 c38 -52 73 -96 77 -98 4 -1 16 4 26 11 17
13 14 20 -49 108 -37 52 -70 97 -74 101 -3 4 -16 -1 -28 -10z"/>
</g>
</svg>
