<?xml version="1.0" standalone="no"?>
<!DOCTYPE svg PUBLIC "-//W3C//DTD SVG 20010904//EN"
 "http://www.w3.org/TR/2001/REC-SVG-20010904/DTD/svg10.dtd">
<svg version="1.0" xmlns="http://www.w3.org/2000/svg"
 width="80.000000pt" height="81.000000pt" viewBox="0 0 80.000000 81.000000"
 preserveAspectRatio="xMidYMid meet">

<g transform="translate(0.000000,81.000000) scale(0.100000,-0.100000)"
fill="#000000" stroke="none">
<path d="M154 774 c4 -15 10 -39 13 -55 3 -16 12 -29 20 -29 11 0 13 7 9 26
-4 15 -10 39 -13 55 -3 16 -12 29 -20 29 -11 0 -13 -7 -9 -26z"/>
<path d="M584 753 c-17 -55 -44 -66 -79 -33 -20 19 -26 20 -44 8 -25 -15 -26
-21 -6 -38 20 -17 19 -57 -3 -69 -9 -5 -30 -7 -45 -4 -25 5 -27 3 -27 -26 0
-26 4 -31 23 -31 47 0 61 -39 26 -76 -17 -18 -19 -26 -10 -43 14 -25 24 -26
41 -6 29 35 70 10 70 -42 0 -29 3 -33 25 -33 16 0 28 7 31 18 17 54 44 65 79
32 19 -18 27 -20 45 -10 20 11 21 13 5 36 -9 14 -15 35 -13 47 2 18 11 23 46
25 37 3 42 6 42 27 0 19 -7 26 -32 33 -42 10 -49 44 -18 77 20 21 21 26 8 44
-13 19 -17 19 -34 6 -23 -17 -60 -19 -70 -4 -4 7 -7 26 -8 43 -1 24 -6 32 -24
34 -14 2 -24 -3 -28 -15z m61 -133 c30 -30 26 -87 -9 -116 -37 -32 -71 -30
-107 5 -33 33 -37 65 -13 99 31 45 89 50 129 12z"/>
<path d="M40 716 c0 -21 81 -79 94 -66 5 5 8 11 5 13 -2 1 -20 14 -39 28 -54
39 -60 42 -60 25z"/>
<path d="M304 706 c-63 -29 -110 -85 -130 -155 -29 -96 3 -192 87 -262 47 -40
49 -43 49 -94 0 -69 20 -85 102 -85 76 0 98 20 98 90 0 45 3 52 40 81 22 18
40 36 40 40 0 3 -21 10 -46 14 -44 6 -45 7 -43 40 4 44 -5 52 -35 31 -35 -22
-40 -21 -71 20 l-27 36 28 29 c24 25 26 31 14 39 -8 5 -25 10 -37 10 -25 0
-29 19 -17 79 7 31 8 32 45 26 44 -8 45 -5 22 46 -22 47 -45 50 -119 15z m-11
-108 c-81 -85 -53 -212 58 -268 44 -23 69 -55 69 -88 0 -30 -22 -24 -30 9 -3
13 -21 34 -40 46 -62 39 -97 72 -114 107 -18 39 -21 112 -5 153 15 40 70 96
83 83 7 -7 0 -21 -21 -42z m127 -418 c0 -11 -4 -20 -10 -20 -5 0 -10 9 -10 20
0 11 5 20 10 20 6 0 10 -9 10 -20z"/>
<path d="M48 578 c-22 -6 -38 -16 -38 -24 0 -14 5 -14 79 6 29 7 40 30 14 29
-10 -1 -35 -6 -55 -11z"/>
<path d="M64 426 c-3 -8 0 -24 6 -36 14 -25 -2 -50 -31 -50 -12 0 -19 -7 -19
-20 0 -13 7 -20 19 -20 29 0 45 -25 31 -50 -6 -12 -9 -28 -6 -36 5 -13 9 -13
35 0 31 16 41 11 54 -26 8 -21 37 -24 37 -4 0 8 7 22 16 31 14 14 19 14 39 1
17 -11 25 -12 34 -3 17 17 13 34 -11 51 -19 14 -23 13 -46 -4 -53 -42 -132 -6
-132 60 0 30 37 80 60 80 5 0 10 7 10 15 0 11 -7 14 -24 9 -13 -3 -34 -1 -45
6 -17 9 -22 8 -27 -4z"/>
<path d="M617 393 c-4 -3 -7 -16 -7 -27 1 -21 1 -21 15 -2 8 11 15 23 15 28 0
10 -14 11 -23 1z"/>
<path d="M673 278 c2 -8 21 -13 47 -13 26 0 45 5 48 13 2 8 -11 12 -48 12 -37
0 -50 -4 -47 -12z"/>
<path d="M655 210 c-7 -11 54 -69 73 -70 21 0 13 17 -23 49 -40 34 -41 35 -50
21z"/>
<path d="M590 135 c0 -25 5 -45 10 -45 6 0 10 20 10 45 0 25 -4 45 -10 45 -5
0 -10 -20 -10 -45z"/>
<path d="M352 88 c3 -8 26 -14 56 -16 42 -2 52 0 52 12 0 13 -12 16 -56 16
-40 0 -55 -4 -52 -12z"/>
<path d="M355 41 c-7 -13 22 -41 43 -41 37 0 62 13 62 31 0 16 -8 19 -49 19
-28 0 -52 -4 -56 -9z"/>
</g>
</svg>
