<?xml version="1.0" standalone="no"?>
<!DOCTYPE svg PUBLIC "-//W3C//DTD SVG 20010904//EN"
 "http://www.w3.org/TR/2001/REC-SVG-20010904/DTD/svg10.dtd">
<svg version="1.0" xmlns="http://www.w3.org/2000/svg"
 width="80.000000pt" height="81.000000pt" viewBox="0 0 80.000000 81.000000"
 preserveAspectRatio="xMidYMid meet">

<g transform="translate(0.000000,81.000000) scale(0.100000,-0.100000)"
fill="#000000" stroke="none">
<path d="M73 799 c-60 -18 -73 -48 -73 -170 0 -90 3 -109 15 -109 12 0 15 18
15 104 0 146 4 150 145 154 75 3 105 7 102 15 -5 15 -159 19 -204 6z"/>
<path d="M528 804 c-18 -18 -2 -22 98 -26 140 -4 144 -8 144 -154 0 -86 3
-104 15 -104 12 0 15 18 15 99 0 164 -18 183 -169 189 -53 2 -99 1 -103 -4z"/>
<path d="M373 784 c-3 -8 -1 -20 6 -27 6 -6 11 -28 11 -48 0 -37 -2 -38 -100
-95 -55 -32 -100 -61 -100 -65 0 -13 170 -108 175 -98 8 12 62 12 70 -1 5 -9
175 88 175 100 0 7 -177 110 -190 110 -6 0 -10 -33 -10 -85 0 -50 -4 -85 -10
-85 -6 0 -10 37 -10 90 0 53 4 90 10 90 6 0 10 17 10 38 0 21 5 43 11 49 17
17 3 43 -21 43 -11 0 -23 -7 -27 -16z"/>
<path d="M170 469 l0 -51 -82 3 c-78 4 -83 3 -83 -16 0 -19 5 -20 83 -16 l82
3 0 -63 0 -64 108 -62 107 -62 3 89 c1 50 7 90 12 90 5 0 11 -41 12 -90 l3
-90 107 62 108 63 0 64 0 63 83 -3 c77 -4 82 -3 82 16 0 19 -5 20 -82 16 l-82
-3 -3 51 -3 52 -78 -48 c-54 -34 -82 -59 -95 -83 -15 -30 -22 -35 -52 -35 -30
0 -38 5 -52 34 -15 30 -77 78 -157 120 -20 11 -21 9 -21 -40z m140 -64 c0 -12
-14 -15 -70 -15 -56 0 -70 3 -70 15 0 12 14 15 70 15 56 0 70 -3 70 -15z m320
0 c0 -12 -14 -15 -70 -15 -56 0 -70 3 -70 15 0 12 14 15 70 15 56 0 70 -3 70
-15z"/>
<path d="M374 415 c-4 -9 -2 -21 4 -27 16 -16 47 -5 47 17 0 26 -42 34 -51 10z"/>
<path d="M0 181 c0 -108 1 -112 29 -143 l28 -32 108 -1 c78 0 109 3 112 13 4
9 -20 12 -95 12 -141 0 -145 4 -152 146 -3 73 -9 109 -17 112 -10 3 -13 -23
-13 -107z"/>
<path d="M777 283 c-4 -3 -7 -51 -7 -105 0 -92 -2 -101 -25 -123 -22 -23 -31
-25 -124 -25 -93 0 -132 -10 -95 -24 25 -10 156 -7 196 4 65 19 78 46 78 171
0 100 -5 121 -23 102z"/>
<path d="M390 97 c0 -18 -5 -38 -11 -44 -17 -17 -3 -43 21 -43 24 0 38 26 21
43 -6 6 -11 26 -11 44 0 18 -4 33 -10 33 -5 0 -10 -15 -10 -33z"/>
</g>
</svg>
