<?xml version="1.0" standalone="no"?>
<!DOCTYPE svg PUBLIC "-//W3C//DTD SVG 20010904//EN"
 "http://www.w3.org/TR/2001/REC-SVG-20010904/DTD/svg10.dtd">
<svg version="1.0" xmlns="http://www.w3.org/2000/svg"
 width="80.000000pt" height="81.000000pt" viewBox="0 0 80.000000 81.000000"
 preserveAspectRatio="xMidYMid meet">

<g transform="translate(0.000000,81.000000) scale(0.100000,-0.100000)"
fill="#000000" stroke="none">
<path d="M152 743 c-22 -9 -44 -63 -37 -94 7 -32 48 -69 77 -69 82 0 124 108
60 156 -17 13 -75 17 -100 7z"/>
<path d="M548 740 c-9 -6 -22 -26 -28 -45 -23 -71 49 -136 116 -104 83 40 58
159 -33 159 -21 0 -46 -5 -55 -10z"/>
<path d="M337 593 c-38 -10 -2 -23 64 -23 65 0 88 10 53 24 -17 7 -89 6 -117
-1z"/>
<path d="M255 574 c-23 -17 -68 -18 -113 -2 -32 12 -35 11 -63 -20 -34 -38
-37 -74 -9 -102 17 -17 33 -20 125 -20 99 0 107 2 130 25 14 13 25 29 25 35 0
21 -29 67 -52 82 -21 14 -27 14 -43 2z"/>
<path d="M486 557 c-14 -14 -28 -38 -32 -53 -6 -22 -2 -32 20 -51 25 -21 37
-23 130 -23 89 0 105 3 124 20 30 28 28 59 -7 100 -28 34 -28 34 -69 21 -38
-13 -69 -12 -119 4 -16 5 -29 0 -47 -18z"/>
<path d="M167 403 c-12 -11 -8 -69 8 -114 17 -46 60 -109 76 -109 15 0 11 26
-7 41 -29 24 -54 87 -54 139 0 46 -7 60 -23 43z"/>
<path d="M610 363 c0 -51 -26 -119 -53 -142 -10 -7 -17 -20 -17 -27 0 -50 73
44 90 116 12 52 7 100 -10 100 -6 0 -10 -21 -10 -47z"/>
<path d="M359 365 c-91 -49 -31 -187 68 -154 69 22 77 121 12 154 -34 18 -47
18 -80 0z"/>
<path d="M285 177 c-40 -40 -45 -75 -14 -103 18 -16 37 -19 131 -19 103 0 111
1 129 24 27 33 24 55 -16 96 -33 35 -35 36 -57 21 -29 -20 -87 -21 -116 0 -21
15 -24 14 -57 -19z"/>
</g>
</svg>
